:version 1.10
:name ASF
:units
  mass 1
  length 1
  angle deg
:documentation
  ASF file generated by Kaydara
:root
  axis xyz
  order  tx ty tz rx ry rz
  position 0 0 0
  orientation 0 0 0
:bonedata
  begin
    id 1
    name RightUpLegDummy
    direction -0.65628 -0.754516 0.00165102
    length 4.76918
    axis 0 0 0 xyz
  end
  begin
    id 2
    name RightUpLeg
    direction -0.145584 -0.923362 0.355256
    length 17.9961
    axis -24.7611 -13.1006 1.78531 xyz
    dof rx ry rz
  end
  begin
    id 3
    name RightLeg
    direction 0.263379 0.172355 -0.949171
    length 13.3386
    axis 89.6202 -21.1929 12.3855 xyz
    dof rx ry rz
  end
  begin
    id 4
    name RightFoot
    direction 0.224283 -0.968777 -0.105675
    length 5.86697
    axis 56.995 -39.6905 17.3365 xyz
    dof rx ry rz
  end
  begin
    id 5
    name RightToes
    direction -0.0806345 -0.9037 0.420506
    length 4.75197
    axis 146.825 -39.7828 17.6019 xyz
    dof rx ry rz
  end
  begin
    id 6
    name SpineDummy
    direction -3.39852e-014 1 9.33296e-014
    length 8.13779
    axis 0 0 0 xyz
  end
  begin
    id 7
    name Spine
    direction -0.156609 0.733703 0.661176
    length 7.14978
    axis 41.2365 5.68757 17.0844 xyz
    dof rx ry rz
  end
  begin
    id 8
    name Spine1
    direction 0 0 0
    length 0
    axis 42.8809 47.8308 -3.36039 xyz
    dof rx ry rz
  end
  begin
    id 9
    name HEadDummy
    direction 0.546431 0.701947 0.456819
    length 3.55512
    axis 42.8809 47.8308 -3.36039 xyz
  end
  begin
    id 10
    name HEad
    direction 0.23444 0.828559 0.508457
    length 7.35827
    axis 51.1864 49.2662 27.4903 xyz
    dof rx ry rz
  end
  begin
    id 11
    name LeftShoulder1Dummy
    direction 0.431183 0.475873 -0.766568
    length 2.49352
    axis 42.8809 47.8308 -3.36039 xyz
  end
  begin
    id 12
    name LeftShoulder1
    direction 0.268187 -0.383402 -0.883786
    length 4.48604
    axis -119.517 0.106469 35.1736 xyz
    dof rx ry rz
  end
  begin
    id 13
    name LeftArm
    direction 0.380567 -0.703221 -0.600541
    length 10.1142
    axis -5.41825 36.2925 7.8293 xyz
    dof rx ry rz
  end
  begin
    id 14
    name LeftForeArm
    direction 0.541071 -0.732356 -0.413396
    length 9.39839
    axis 4.65387 33.7604 7.81644 xyz
    dof rx ry rz
  end
  begin
    id 15
    name LeftHand
    direction 0.847511 -0.389379 -0.360707
    length 3.66142
    axis 7.65593 21.1436 -24.6758 xyz
    dof rx ry rz
  end
  begin
    id 16
    name RightShoulderDummy
    direction -0.692546 0.541855 0.476208
    length 2.49352
    axis 42.8809 47.8308 -3.36039 xyz
  end
  begin
    id 17
    name RightShoulder
    direction -0.870808 -0.316653 0.376065
    length 4.48602
    axis 141.571 51.133 -100.254 xyz
    dof rx ry rz
  end
  begin
    id 18
    name RightArm
    direction 0.366897 -0.87275 0.322015
    length 10.1142
    axis 92.3258 71.2036 138.917 xyz
    dof rx ry rz
  end
  begin
    id 19
    name RightForeArm
    direction 0.702487 -0.694568 0.155197
    length 9.39835
    axis 153.863 41.5092 -176.604 xyz
    dof rx ry rz
  end
  begin
    id 20
    name RightHand
    direction 0.79502 -0.601276 0.0800636
    length 3.66142
    axis 154.247 4.59222 142.9 xyz
    dof rx ry rz
  end
  begin
    id 21
    name LeftUpLegDummy
    direction 0.65628 -0.754516 0.00165102
    length 4.76919
    axis 0 0 0 xyz
  end
  begin
    id 22
    name LeftUpLeg
    direction -0.1277 -0.689368 0.713067
    length 17.9961
    axis -48.3385 -17.8675 0.791927 xyz
    dof rx ry rz
  end
  begin
    id 23
    name LeftLeg
    direction 0.109849 -0.991246 -0.0732378
    length 13.3386
    axis -2.05791 -7.30784 1.72042 xyz
    dof rx ry rz
  end
  begin
    id 24
    name LeftFoot
    direction 0.0448355 -0.272614 0.961078
    length 5.86697
    axis -18.7733 -7.89606 10.2113 xyz
    dof rx ry rz
  end
  begin
    id 25
    name LeftToes
    direction -0.18506 0.293668 0.937823
    length 4.75197
    axis 71.2267 -7.89606 10.2113 xyz
    dof rx ry rz
  end
:hierarchy
  begin
    root RightUpLegDummy SpineDummy LeftUpLegDummy
    RightUpLegDummy RightUpLeg
    RightUpLeg RightLeg
    RightLeg RightFoot
    RightFoot RightToes
    SpineDummy Spine
    Spine Spine1
    Spine1 HEadDummy LeftShoulder1Dummy RightShoulderDummy
    HEadDummy HEad
    LeftShoulder1Dummy LeftShoulder1
    LeftShoulder1 LeftArm
    LeftArm LeftForeArm
    LeftForeArm LeftHand
    RightShoulderDummy RightShoulder
    RightShoulder RightArm
    RightArm RightForeArm
    RightForeArm RightHand
    LeftUpLegDummy LeftUpLeg
    LeftUpLeg LeftLeg
    LeftLeg LeftFoot
    LeftFoot LeftToes
  end

:SAMPLES-PER-SECOND 30
:FULLY-SPECIFIED
:DEGREES
339
root  5.3594 37.1212 -44.7644 -9.02148 -2.67131 2.19394
RightUpLeg  -0.88301 17.3488 -0.566535
RightLeg  -86.0709 -12.223 -1.41761
RightFoot  27.9807 4.12941 -16.1153
RightToes  -1.27222e-014 -6.36111e-015 6.36111e-015
Spine  -26.6076 -25.7553 -19.2937
Spine1  2.96635 -17.7297 66.8697
HEad  -5.03322 14.6956 -26.2842
LeftShoulder1  6.36111e-015 -1.33558e-015 6.49777e-015
LeftArm  17.2345 -23.979 -37.7168
LeftForeArm  -5.31682 -33.1052 1.84509
LeftHand  0.364302 3.06986 -7.39067
RightShoulder  -4.77083e-015 -6.36111e-015 -3.18055e-015
RightArm  45.1126 -28.7305 -13.7231
RightForeArm  -32.062 -4.75491 -13.7345
RightHand  0.593996 2.34001 -9.05645
LeftUpLeg  61.5132 14.6893 17.3852
LeftLeg  -14.9221 -4.49104 -1.56126
LeftFoot  -9.52262 4.42343 -20.9114
LeftToes  9.54166e-015 4.2066e-011 -8.07781e-011
340
root  4.97187 36.7415 -43.6974 -8.44814 -3.96599 0.498858
RightUpLeg  -1.56059 17.1595 2.15967
RightLeg  -80.43 -12.4814 -1.9664
RightFoot  26.1087 3.68344 -15.2073
RightToes  -1.27222e-014 -6.36111e-015 6.36111e-015
Spine  -26.6665 -23.6461 -16.1772
Spine1  4.47224 -17.5555 67.1486
HEad  -7.3208 15.2881 -27.8382
LeftShoulder1  6.36111e-015 -1.33558e-015 6.49777e-015
LeftArm  20.541 -18.7649 -39.8388
LeftForeArm  -5.90171 -30.0068 1.20682
LeftHand  0.488935 3.38064 -7.16116
RightShoulder  -4.77083e-015 -6.36111e-015 -3.18055e-015
RightArm  38.2393 -28.388 -10.0405
RightForeArm  -34.9242 -1.5878 -16.5032
RightHand  0.578855 2.42781 -9.12273
LeftUpLeg  57.296 12.2348 16.1377
LeftLeg  -3.32681 0.0533023 -0.606293
LeftFoot  -7.17312 5.70932 -24.4622
LeftToes  9.54166e-015 4.2066e-011 -8.07781e-011
341
root  4.56511 36.4522 -42.5269 -7.79581 -4.80077 -1.35187
RightUpLeg  -1.65018 15.514 4.30043
RightLeg  -76.216 -12.6807 -2.16935
RightFoot  22.5968 2.7899 -13.2693
RightToes  -1.27222e-014 -6.36111e-015 6.36111e-015
Spine  -27.5572 -20.0843 -11.0445
Spine1  5.64658 -16.7732 64.655
HEad  -7.69987 14.1871 -27.3877
LeftShoulder1  6.36111e-015 -1.33558e-015 6.49777e-015
LeftArm  28.9754 -17.327 -45.9557
LeftForeArm  -5.77871 -27.8897 0.677523
LeftHand  0.115164 2.44912 -7.89004
RightShoulder  -4.77083e-015 -6.36111e-015 -3.18055e-015
RightArm  32.3698 -28.1132 -4.85422
RightForeArm  -38.4828 3.32739 -21.4696
RightHand  0.39743 2.61979 -7.9115
LeftUpLeg  50.8558 10.1455 16.1712
LeftLeg  10.6054 4.3674 2.52081
LeftFoot  4.09936 6.71946 -19.9004
LeftToes  9.54166e-015 4.2066e-011 -8.07781e-011
342
root  4.13208 36.088 -41.3214 -8.01046 -5.20642 -2.93717
RightUpLeg  -0.786509 13.6195 6.05153
RightLeg  -71.5911 -12.8895 -2.33282
RightFoot  18.64 2.58729 -12.0686
RightToes  -1.27222e-014 -6.36111e-015 6.36111e-015
Spine  -27.7262 -16.748 -7.03964
Spine1  6.83289 -15.5804 62.4258
HEad  -7.98461 12.5491 -26.9861
LeftShoulder1  6.36111e-015 -1.33558e-015 6.49777e-015
LeftArm  35.5507 -13.6062 -50.9973
LeftForeArm  -4.82947 -28.9662 0.692324
LeftHand  -0.206594 1.452 -7.99204
RightShoulder  -4.77083e-015 -6.36111e-015 -3.18055e-015
RightArm  26.9226 -24.4666 1.6171
RightForeArm  -41.4827 8.88393 -28.1646
RightHand  0.223916 2.5886 -6.24418
LeftUpLeg  44.6098 8.48208 16.6269
LeftLeg  23.1483 6.07652 6.22211
LeftFoot  15.4103 5.25418 -11.7728
LeftToes  9.54166e-015 4.2066e-011 -8.07781e-011
